<svg xmlns="http://www.w3.org/2000/svg" viewBox="0 0 640 480" role="img" aria-label="City lights">
  <rect width="640" height="480" fill="#cfd8e7"/>
  <rect y="300" width="640" height="180" fill="#2e4057"/>
  <rect x="55" y="170" width="82" height="310" fill="#263447"/>
  <rect x="165" y="110" width="92" height="370" fill="#1d2a39"/>
  <rect x="285" y="145" width="84" height="335" fill="#32445c"/>
  <rect x="400" y="80" width="100" height="400" fill="#223047"/>
  <rect x="530" y="190" width="70" height="290" fill="#2c3e52"/>
  <g fill="#f7d86a">
    <rect x="78" y="210" width="18" height="24"/><rect x="108" y="255" width="18" height="24"/>
    <rect x="190" y="150" width="18" height="24"/><rect x="224" y="200" width="18" height="24"/><rect x="190" y="260" width="18" height="24"/>
    <rect x="310" y="190" width="18" height="24"/><rect x="340" y="250" width="18" height="24"/>
    <rect x="430" y="125" width="18" height="24"/><rect x="468" y="185" width="18" height="24"/><rect x="430" y="255" width="18" height="24"/>
    <rect x="552" y="230" width="18" height="24"/><rect x="552" y="285" width="18" height="24"/>
  </g>
</svg>
