<svg xmlns="http://www.w3.org/2000/svg" viewBox="0 0 640 480" role="img" aria-label="Quiet library">
  <rect width="640" height="480" fill="#efe6d3"/>
  <rect x="64" y="72" width="512" height="330" rx="8" fill="#7b4d35"/>
  <rect x="92" y="104" width="456" height="76" fill="#5b3828"/>
  <rect x="92" y="204" width="456" height="76" fill="#5b3828"/>
  <rect x="92" y="304" width="456" height="76" fill="#5b3828"/>
  <g>
    <rect x="112" y="95" width="28" height="85" fill="#2f7a67"/><rect x="148" y="112" width="22" height="68" fill="#d59f45"/><rect x="180" y="92" width="32" height="88" fill="#9b3d45"/>
    <rect x="246" y="106" width="26" height="74" fill="#355f8a"/><rect x="284" y="96" width="36" height="84" fill="#536d2b"/><rect x="330" y="116" width="22" height="64" fill="#d9c07a"/>
    <rect x="410" y="98" width="30" height="82" fill="#9b3d45"/><rect x="454" y="110" width="24" height="70" fill="#2f7a67"/>
    <rect x="124" y="198" width="24" height="82" fill="#d59f45"/><rect x="160" y="214" width="34" height="66" fill="#355f8a"/><rect x="210" y="202" width="26" height="78" fill="#536d2b"/>
    <rect x="302" y="196" width="32" height="84" fill="#9b3d45"/><rect x="348" y="218" width="26" height="62" fill="#d9c07a"/><rect x="430" y="204" width="34" height="76" fill="#2f7a67"/>
    <rect x="110" y="312" width="30" height="68" fill="#355f8a"/><rect x="154" y="298" width="28" height="82" fill="#536d2b"/><rect x="198" y="316" width="26" height="64" fill="#d59f45"/>
    <rect x="278" y="300" width="32" height="80" fill="#2f7a67"/><rect x="328" y="312" width="24" height="68" fill="#9b3d45"/><rect x="420" y="294" width="36" height="86" fill="#d9c07a"/>
  </g>
  <rect x="250" y="412" width="140" height="24" fill="#5b3828"/>
</svg>
